<?xml version="1.0" encoding="utf-8"?>
<!-- Generator: Adobe Illustrator 16.0.0, SVG Export Plug-In . SVG Version: 6.00 Build 0)  -->
<!DOCTYPE svg PUBLIC "-//W3C//DTD SVG 1.0//EN" "http://www.w3.org/TR/2001/REC-SVG-20010904/DTD/svg10.dtd">
<svg version="1.0" id="Layer_1" xmlns="http://www.w3.org/2000/svg" xmlns:xlink="http://www.w3.org/1999/xlink" x="0px" y="0px"
	 width="3149.723px" height="568.244px" viewBox="0 0 3149.723 568.244" enable-background="new 0 0 3149.723 568.244"
	 xml:space="preserve">
<g>
	<g opacity="0.25">
		
			<linearGradient id="SVGID_1_" gradientUnits="userSpaceOnUse" x1="47.6948" y1="-7506.8135" x2="89.2358" y2="-7506.8135" gradientTransform="matrix(0 1 -1 0 -6299.0469 468.3848)">
			<stop  offset="0" style="stop-color:#F7EC3C"/>
			<stop  offset="1" style="stop-color:#FFDD0F"/>
		</linearGradient>
		<polygon fill="url(#SVGID_1_)" points="1227.514,516.08 1188.02,532.64 1216.615,557.621 		"/>
		<polygon fill="#F49FC4" points="217.276,487.398 220.011,524.73 248.521,507.941 		"/>
		
			<linearGradient id="SVGID_2_" gradientUnits="userSpaceOnUse" x1="-45.8599" y1="-6450.396" x2="-23.9517" y2="-6450.396" gradientTransform="matrix(0 1 -1 0 -6299.0469 468.3848)">
			<stop  offset="0" style="stop-color:#FFDD0F"/>
			<stop  offset="1" style="stop-color:#F16623"/>
		</linearGradient>
		<polygon fill="url(#SVGID_2_)" points="145.831,422.525 141.902,444.433 160.796,439.029 		"/>
		<polygon fill="#F49FC4" points="1369.127,413.306 1368.129,442.726 1391.801,432.029 		"/>
		
			<linearGradient id="SVGID_3_" gradientUnits="userSpaceOnUse" x1="-322.4556" y1="-6675.6328" x2="-305.9233" y2="-6675.6328" gradientTransform="matrix(0 1 -1 0 -6299.0469 468.3848)">
			<stop  offset="0" style="stop-color:#F2767C"/>
			<stop  offset="1" style="stop-color:#EC2227"/>
		</linearGradient>
		<polygon fill="url(#SVGID_3_)" points="382.876,145.929 369.985,156.202 383.187,162.461 		"/>
		
			<linearGradient id="SVGID_4_" gradientUnits="userSpaceOnUse" x1="-432.4282" y1="-6623.4365" x2="-410.4058" y2="-6623.4365" gradientTransform="matrix(0 1 -1 0 -6299.0469 468.3848)">
			<stop  offset="0" style="stop-color:#FFDD0F"/>
			<stop  offset="1" style="stop-color:#F16623"/>
		</linearGradient>
		<polygon fill="url(#SVGID_4_)" points="312.397,57.979 336.382,53.172 323.181,35.957 		"/>
		
			<linearGradient id="SVGID_5_" gradientUnits="userSpaceOnUse" x1="-318.2153" y1="-7603.8682" x2="-284.3569" y2="-7603.8682" gradientTransform="matrix(0 1 -1 0 -6299.0469 468.3848)">
			<stop  offset="0" style="stop-color:#F2767C"/>
			<stop  offset="1" style="stop-color:#EC2227"/>
		</linearGradient>
		<polygon fill="url(#SVGID_5_)" points="1285.416,176.403 1324.227,184.028 1315.092,150.169 		"/>
		
			<linearGradient id="SVGID_6_" gradientUnits="userSpaceOnUse" x1="-164.2842" y1="-7600.8232" x2="-137.9912" y2="-7600.8232" gradientTransform="matrix(0 1 -1 0 -6299.0469 468.3848)">
			<stop  offset="0" style="stop-color:#F7EC3C"/>
			<stop  offset="1" style="stop-color:#FFDD0F"/>
		</linearGradient>
		<polygon fill="url(#SVGID_6_)" points="1287.207,322.481 1316.346,330.394 1311.225,304.101 		"/>
		
			<linearGradient id="SVGID_7_" gradientUnits="userSpaceOnUse" x1="-389.2915" y1="-7408.3359" x2="-355.603" y2="-7408.3359" gradientTransform="matrix(0 1 -1 0 -6299.0469 468.3848)">
			<stop  offset="0" style="stop-color:#F7EC3C"/>
			<stop  offset="1" style="stop-color:#FFDD0F"/>
		</linearGradient>
		<polygon fill="url(#SVGID_7_)" points="1093.068,112.782 1125.51,99.893 1102.602,79.093 		"/>
		
			<linearGradient id="SVGID_8_" gradientUnits="userSpaceOnUse" x1="-164.1123" y1="-7234.9399" x2="-137.0244" y2="-7234.9399" gradientTransform="matrix(0 1 -1 0 -6299.0469 468.3848)">
			<stop  offset="0" style="stop-color:#FFDD0F"/>
			<stop  offset="1" style="stop-color:#F16623"/>
		</linearGradient>
		<polygon fill="url(#SVGID_8_)" points="943.66,304.272 924.425,323.679 947.361,331.36 		"/>
		<polygon fill="#F49FC4" points="85.767,246.114 97.574,215.27 68.523,217.945 		"/>
		
			<linearGradient id="SVGID_9_" gradientUnits="userSpaceOnUse" x1="8.6577" y1="-7385.0879" x2="49.5151" y2="-7385.0879" gradientTransform="matrix(0 1 -1 0 -6299.0469 468.3848)">
			<stop  offset="0" style="stop-color:#27A8E0"/>
			<stop  offset="1" style="stop-color:#87D2DA"/>
		</linearGradient>
		<polygon fill="url(#SVGID_9_)" points="1082.742,517.9 1105.361,480.285 1066.721,477.042 		"/>
		
			<linearGradient id="SVGID_10_" gradientUnits="userSpaceOnUse" x1="-314.2905" y1="-6873.1279" x2="-295.9097" y2="-6873.1279" gradientTransform="matrix(0 1 -1 0 -6299.0469 468.3848)">
			<stop  offset="0" style="stop-color:#F7EC3C"/>
			<stop  offset="1" style="stop-color:#FFDD0F"/>
		</linearGradient>
		<polygon fill="url(#SVGID_10_)" points="584.184,159.9 563.979,154.094 567.283,172.475 		"/>
		
			<linearGradient id="SVGID_11_" gradientUnits="userSpaceOnUse" x1="-295.9097" y1="-7257.8027" x2="-246.5146" y2="-7257.8027" gradientTransform="matrix(0 1 -1 0 -6299.0469 468.3848)">
			<stop  offset="0" style="stop-color:#CBE9EB"/>
			<stop  offset="1" style="stop-color:#7DCED2"/>
		</linearGradient>
		<polygon fill="url(#SVGID_11_)" points="939.393,221.87 978.375,191.595 939.137,172.475 		"/>
		
			<linearGradient id="SVGID_12_" gradientUnits="userSpaceOnUse" x1="-94.8584" y1="-6623.4927" x2="-68.5083" y2="-6623.4927" gradientTransform="matrix(0 1 -1 0 -6299.0469 468.3848)">
			<stop  offset="0" style="stop-color:#FFDD0F"/>
			<stop  offset="1" style="stop-color:#F16623"/>
		</linearGradient>
		<polygon fill="url(#SVGID_12_)" points="313.59,373.526 315.042,399.876 335.302,388.38 		"/>
		
			<linearGradient id="SVGID_13_" gradientUnits="userSpaceOnUse" x1="49.7437" y1="-6332.2148" x2="83.5464" y2="-6332.2148" gradientTransform="matrix(0 1 -1 0 -6299.0469 468.3848)">
			<stop  offset="0" style="stop-color:#27A8E0"/>
			<stop  offset="1" style="stop-color:#87D2DA"/>
		</linearGradient>
		<polygon fill="url(#SVGID_13_)" points="50.624,518.128 15.712,528.031 37.253,551.931 		"/>
		<polygon fill="#F49FC4" points="1194.053,140.75 1215.078,151.537 1215.393,130.593 		"/>
		
			<linearGradient id="SVGID_14_" gradientUnits="userSpaceOnUse" x1="-250.1558" y1="-7681.6592" x2="-227.5635" y2="-7681.6592" gradientTransform="matrix(0 1 -1 0 -6299.0469 468.3848)">
			<stop  offset="0" style="stop-color:#F7EC3C"/>
			<stop  offset="1" style="stop-color:#FFDD0F"/>
		</linearGradient>
		<polygon fill="url(#SVGID_14_)" points="1394.705,232.229 1373.164,218.229 1370.52,240.821 		"/>
		
			<linearGradient id="SVGID_15_" gradientUnits="userSpaceOnUse" x1="-162.1787" y1="-7747.8975" x2="-138.2178" y2="-7747.8975" gradientTransform="matrix(0 1 -1 0 -6299.0469 468.3848)">
			<stop  offset="0" style="stop-color:#FFDD0F"/>
			<stop  offset="1" style="stop-color:#F16623"/>
		</linearGradient>
		<polygon fill="url(#SVGID_15_)" points="1434.313,308.198 1453.574,330.167 1463.389,306.206 		"/>
		
			<linearGradient id="SVGID_16_" gradientUnits="userSpaceOnUse" x1="-121.9443" y1="-7009.5771" x2="-89.5068" y2="-7009.5771" gradientTransform="matrix(0 1 -1 0 -6299.0469 468.3848)">
			<stop  offset="0" style="stop-color:#F7EC3C"/>
			<stop  offset="1" style="stop-color:#FFDD0F"/>
		</linearGradient>
		<polygon fill="url(#SVGID_16_)" points="725.113,378.878 719.363,346.44 695.947,363.739 		"/>
		<polygon fill="#F49FC4" points="1010.299,45.831 1008.594,62.419 1022.393,57.242 		"/>
		<polygon fill="#F49FC4" points="667.467,279.688 709.463,238.376 660.323,221.133 		"/>
		
			<linearGradient id="SVGID_17_" gradientUnits="userSpaceOnUse" x1="-455.6167" y1="-6457.1689" x2="-440.0249" y2="-6457.1689" gradientTransform="matrix(0 1 -1 0 -6299.0469 468.3848)">
			<stop  offset="0" style="stop-color:#F7EC3C"/>
			<stop  offset="1" style="stop-color:#FFDD0F"/>
		</linearGradient>
		<polygon fill="url(#SVGID_17_)" points="166.173,21.331 150.81,12.768 150.071,28.36 		"/>
		
			<linearGradient id="SVGID_18_" gradientUnits="userSpaceOnUse" x1="49.1167" y1="-7739.6611" x2="92.0815" y2="-7739.6611" gradientTransform="matrix(0 1 -1 0 -6299.0469 468.3848)">
			<stop  offset="0" style="stop-color:#CBE9EB"/>
			<stop  offset="1" style="stop-color:#7DCED2"/>
		</linearGradient>
		<polygon fill="url(#SVGID_18_)" points="1451.385,560.466 1459.15,517.501 1422.078,528.144 		"/>
		
			<linearGradient id="SVGID_19_" gradientUnits="userSpaceOnUse" x1="-38.7466" y1="-6777.7393" x2="-10.9751" y2="-6777.7393" gradientTransform="matrix(0 1 -1 0 -6299.0469 468.3848)">
			<stop  offset="0" style="stop-color:#FFDD0F"/>
			<stop  offset="1" style="stop-color:#F16623"/>
		</linearGradient>
		<polygon fill="url(#SVGID_19_)" points="494.952,434.474 462.433,429.638 471.365,457.41 		"/>
		<polygon fill="#F49FC4" points="92.282,133.294 72.477,102.509 55.862,130.366 		"/>
		
			<linearGradient id="SVGID_20_" gradientUnits="userSpaceOnUse" x1="-404.4292" y1="-6967.7485" x2="-373.813" y2="-6967.7485" gradientTransform="matrix(0 1 -1 0 -6299.0469 468.3848)">
			<stop  offset="0" style="stop-color:#F7EC3C"/>
			<stop  offset="1" style="stop-color:#FFDD0F"/>
		</linearGradient>
		<polygon fill="url(#SVGID_20_)" points="677.311,63.956 655.741,86.036 681.662,94.572 		"/>
		<polygon fill="#F49FC4" points="914.042,462.984 908.72,433.394 887.408,449.214 		"/>
		<polygon fill="#F49FC4" points="1015.592,414.16 1017.785,388.778 996.842,396.976 		"/>
		
			<linearGradient id="SVGID_21_" gradientUnits="userSpaceOnUse" x1="-336.8813" y1="-6510.5908" x2="-292.5513" y2="-6510.5908" gradientTransform="matrix(0 1 -1 0 -6299.0469 468.3848)">
			<stop  offset="0" style="stop-color:#FFDD0F"/>
			<stop  offset="1" style="stop-color:#F16623"/>
		</linearGradient>
		<polygon fill="url(#SVGID_21_)" points="186.122,175.833 236.966,169.517 212.043,131.503 		"/>
		<polygon fill="#F49FC4" points="670.795,525.697 657.648,534.744 669.968,541.632 		"/>
		
			<linearGradient id="SVGID_22_" gradientUnits="userSpaceOnUse" x1="-144.4229" y1="-6867.2959" x2="-117.0498" y2="-6867.2959" gradientTransform="matrix(0 1 -1 0 -6299.0469 468.3848)">
			<stop  offset="0" style="stop-color:#FFDD0F"/>
			<stop  offset="1" style="stop-color:#F16623"/>
		</linearGradient>
		<polygon fill="url(#SVGID_22_)" points="584.184,329.028 552.314,323.962 560.795,351.335 		"/>
		<polygon fill="#F49FC4" points="612.807,433.964 601.198,450.296 618.666,453.142 		"/>
		
			<linearGradient id="SVGID_23_" gradientUnits="userSpaceOnUse" x1="-61.2817" y1="-6331.5605" x2="-27.2524" y2="-6331.5605" gradientTransform="matrix(0 1 -1 0 -6299.0469 468.3848)">
			<stop  offset="0" style="stop-color:#FFDD0F"/>
			<stop  offset="1" style="stop-color:#F16623"/>
		</linearGradient>
		<polygon fill="url(#SVGID_23_)" points="52.899,411.257 12.128,407.103 24.817,441.132 		"/>
		
			<linearGradient id="SVGID_24_" gradientUnits="userSpaceOnUse" x1="-130.1396" y1="-7128.5229" x2="-82.0518" y2="-7128.5229" gradientTransform="matrix(0 1 -1 0 -6299.0469 468.3848)">
			<stop  offset="0" style="stop-color:#F7EC3C"/>
			<stop  offset="1" style="stop-color:#FFDD0F"/>
		</linearGradient>
		<polygon fill="url(#SVGID_24_)" points="812.892,386.333 849.109,354.634 809.843,338.245 		"/>
		
			<linearGradient id="SVGID_25_" gradientUnits="userSpaceOnUse" x1="-265.4644" y1="-7392.458" x2="-246.0015" y2="-7392.458" gradientTransform="matrix(0 1 -1 0 -6299.0469 468.3848)">
			<stop  offset="0" style="stop-color:#F7EC3C"/>
			<stop  offset="1" style="stop-color:#FFDD0F"/>
		</linearGradient>
		<polygon fill="url(#SVGID_25_)" points="1103.738,210.662 1083.084,202.92 1085.074,222.383 		"/>
		
			<linearGradient id="SVGID_26_" gradientUnits="userSpaceOnUse" x1="-442.1479" y1="-7518.4199" x2="-424.9907" y2="-7518.4199" gradientTransform="matrix(0 1 -1 0 -6299.0469 468.3848)">
			<stop  offset="0" style="stop-color:#CBE9EB"/>
			<stop  offset="1" style="stop-color:#7DCED2"/>
		</linearGradient>
		<polygon fill="url(#SVGID_26_)" points="1229.971,26.237 1208.775,26.75 1217.48,43.394 		"/>
		
			<linearGradient id="SVGID_27_" gradientUnits="userSpaceOnUse" x1="-181.6982" y1="-6518.7852" x2="-151.8193" y2="-6518.7852" gradientTransform="matrix(0 1 -1 0 -6299.0469 468.3848)">
			<stop  offset="0" style="stop-color:#FFDD0F"/>
			<stop  offset="1" style="stop-color:#F16623"/>
		</linearGradient>
		<polygon fill="url(#SVGID_27_)" points="215.855,286.687 205.981,316.565 233.495,312.694 		"/>
		
			<linearGradient id="SVGID_28_" gradientUnits="userSpaceOnUse" x1="-247.1978" y1="-6774.2676" x2="-231.2627" y2="-6774.2676" gradientTransform="matrix(0 1 -1 0 -6299.0469 468.3848)">
			<stop  offset="0" style="stop-color:#F7EC3C"/>
			<stop  offset="1" style="stop-color:#FFDD0F"/>
		</linearGradient>
		<polygon fill="url(#SVGID_28_)" points="467.013,229.896 483.429,237.122 482.745,221.187 		"/>
		
			<linearGradient id="SVGID_29_" gradientUnits="userSpaceOnUse" x1="-152.6748" y1="-7395.9736" x2="-137.9346" y2="-7395.9736" gradientTransform="matrix(0 1 -1 0 -6299.0469 468.3848)">
			<stop  offset="0" style="stop-color:#F7EC3C"/>
			<stop  offset="1" style="stop-color:#FFDD0F"/>
		</linearGradient>
		<polygon fill="url(#SVGID_29_)" points="1104.965,320.661 1088.889,315.71 1091.248,330.45 		"/>
		
			<linearGradient id="SVGID_30_" gradientUnits="userSpaceOnUse" x1="-156.2568" y1="-6390.1465" x2="-128.8877" y2="-6390.1465" gradientTransform="matrix(0 1 -1 0 -6299.0469 468.3848)">
			<stop  offset="0" style="stop-color:#CBE9EB"/>
			<stop  offset="1" style="stop-color:#7DCED2"/>
		</linearGradient>
		<polygon fill="url(#SVGID_30_)" points="105.739,329.083 79.675,312.128 76.46,339.497 		"/>
		
			<linearGradient id="SVGID_31_" gradientUnits="userSpaceOnUse" x1="-62.1333" y1="-7560.6904" x2="-29.7563" y2="-7560.6904" gradientTransform="matrix(0 1 -1 0 -6299.0469 468.3848)">
			<stop  offset="0" style="stop-color:#CBE9EB"/>
			<stop  offset="1" style="stop-color:#7DCED2"/>
		</linearGradient>
		<polygon fill="url(#SVGID_31_)" points="1246.008,406.251 1255.256,438.628 1277.279,418.597 		"/>
		
			<linearGradient id="SVGID_32_" gradientUnits="userSpaceOnUse" x1="-236.6104" y1="-6622.8252" x2="-214.3623" y2="-6622.8252" gradientTransform="matrix(0 1 -1 0 -6299.0469 468.3848)">
			<stop  offset="0" style="stop-color:#F7EC3C"/>
			<stop  offset="1" style="stop-color:#FFDD0F"/>
		</linearGradient>
		<polygon fill="url(#SVGID_32_)" points="336.269,231.774 311.288,235.585 324.093,254.022 		"/>
		
			<linearGradient id="SVGID_33_" gradientUnits="userSpaceOnUse" x1="-65.2095" y1="-7456.2656" x2="-49.5571" y2="-7456.2656" gradientTransform="matrix(0 1 -1 0 -6299.0469 468.3848)">
			<stop  offset="0" style="stop-color:#F2767C"/>
			<stop  offset="1" style="stop-color:#EC2227"/>
		</linearGradient>
		<polygon fill="url(#SVGID_33_)" points="1150.207,418.828 1164.23,411.484 1152.908,403.175 		"/>
		
			<linearGradient id="SVGID_34_" gradientUnits="userSpaceOnUse" x1="-365.0786" y1="-7088.064" x2="-338.0747" y2="-7088.064" gradientTransform="matrix(0 1 -1 0 -6299.0469 468.3848)">
			<stop  offset="0" style="stop-color:#FFDD0F"/>
			<stop  offset="1" style="stop-color:#F16623"/>
		</linearGradient>
		<polygon fill="url(#SVGID_34_)" points="792.318,103.306 776.527,127.064 801.507,130.31 		"/>
		
			<linearGradient id="SVGID_35_" gradientUnits="userSpaceOnUse" x1="-446.937" y1="-7782.127" x2="-412.1411" y2="-7782.127" gradientTransform="matrix(0 1 -1 0 -6299.0469 468.3848)">
			<stop  offset="0" style="stop-color:#F2767C"/>
			<stop  offset="1" style="stop-color:#EC2227"/>
		</linearGradient>
		<polygon fill="url(#SVGID_35_)" points="1464.842,36.101 1498.617,56.244 1501.318,21.448 		"/>
		
			<linearGradient id="SVGID_36_" gradientUnits="userSpaceOnUse" x1="-424.5737" y1="-6742.2012" x2="-384.5698" y2="-6742.2012" gradientTransform="matrix(0 1 -1 0 -6299.0469 468.3848)">
			<stop  offset="0" style="stop-color:#CBE9EB"/>
			<stop  offset="1" style="stop-color:#7DCED2"/>
		</linearGradient>
		<polygon fill="url(#SVGID_36_)" points="424.646,43.811 433.468,83.815 461.663,61.109 		"/>
		
			<linearGradient id="SVGID_37_" gradientUnits="userSpaceOnUse" x1="-314.688" y1="-7787.9746" x2="-285.7212" y2="-7787.9746" gradientTransform="matrix(0 1 -1 0 -6299.0469 468.3848)">
			<stop  offset="0" style="stop-color:#CBE9EB"/>
			<stop  offset="1" style="stop-color:#7DCED2"/>
		</linearGradient>
		<polygon fill="url(#SVGID_37_)" points="1477.049,153.697 1478.469,182.664 1500.807,170.2 		"/>
		
			<linearGradient id="SVGID_38_" gradientUnits="userSpaceOnUse" x1="-412.1968" y1="-7647.6846" x2="-393.5601" y2="-7647.6846" gradientTransform="matrix(0 1 -1 0 -6299.0469 468.3848)">
			<stop  offset="0" style="stop-color:#CBE9EB"/>
			<stop  offset="1" style="stop-color:#7DCED2"/>
		</linearGradient>
		<polygon fill="url(#SVGID_38_)" points="1339.703,56.188 1344.855,74.825 1357.572,63.416 		"/>
		
			<linearGradient id="SVGID_39_" gradientUnits="userSpaceOnUse" x1="-399.4214" y1="-7214.5376" x2="-379.9595" y2="-7214.5376" gradientTransform="matrix(0 1 -1 0 -6299.0469 468.3848)">
			<stop  offset="0" style="stop-color:#F7EC3C"/>
			<stop  offset="1" style="stop-color:#FFDD0F"/>
		</linearGradient>
		<polygon fill="url(#SVGID_39_)" points="913.927,88.425 924.681,70.501 906.3,68.963 		"/>
		<polygon fill="#F49FC4" points="1505.531,392.194 1544.2,417.859 1549.375,377.058 		"/>
		<polygon fill="#F49FC4" points="428.116,337.677 425.44,318.101 410.986,327.89 		"/>
		<polygon fill="#F49FC4" points="800.91,478.976 759.6,463.498 763.552,502.48 		"/>
		
			<linearGradient id="SVGID_40_" gradientUnits="userSpaceOnUse" x1="-248.2202" y1="-7130.5894" x2="-225.5146" y2="-7130.5894" gradientTransform="matrix(0 1 -1 0 -6299.0469 468.3848)">
			<stop  offset="0" style="stop-color:#FFDD0F"/>
			<stop  offset="1" style="stop-color:#F16623"/>
		</linearGradient>
		<polygon fill="url(#SVGID_40_)" points="820.175,242.87 842.91,235.358 828.027,220.165 		"/>
		
			<linearGradient id="SVGID_41_" gradientUnits="userSpaceOnUse" x1="32.0444" y1="-6647.6079" x2="45.7593" y2="-6647.6079" gradientTransform="matrix(0 1 -1 0 -6299.0469 468.3848)">
			<stop  offset="0" style="stop-color:#CBE9EB"/>
			<stop  offset="1" style="stop-color:#7DCED2"/>
		</linearGradient>
		<polygon fill="url(#SVGID_41_)" points="344.38,500.429 342.814,514.144 354.308,510.046 		"/>
		
			<linearGradient id="SVGID_42_" gradientUnits="userSpaceOnUse" x1="-439.2847" y1="-6848.5166" x2="-416.8618" y2="-6848.5166" gradientTransform="matrix(0 1 -1 0 -6299.0469 468.3848)">
			<stop  offset="0" style="stop-color:#F2767C"/>
			<stop  offset="1" style="stop-color:#EC2227"/>
		</linearGradient>
		<polygon fill="url(#SVGID_42_)" points="539.996,29.1 541.987,51.523 558.943,41.164 		"/>
	</g>
</g>
<g>
	<g opacity="0.25">
		
			<linearGradient id="SVGID_43_" gradientUnits="userSpaceOnUse" x1="47.6943" y1="-9097.8145" x2="89.2354" y2="-9097.8145" gradientTransform="matrix(8.979319e-011 -1 1 8.979319e-011 11042.5508 104.8491)">
			<stop  offset="0" style="stop-color:#F7EC3C"/>
			<stop  offset="1" style="stop-color:#FFDD0F"/>
		</linearGradient>
		<polygon fill="url(#SVGID_43_)" points="1924.99,57.155 1964.484,40.594 1935.889,15.614 		"/>
		<polygon fill="#F49FC4" points="2935.228,85.836 2932.493,48.504 2903.983,65.293 		"/>
		
			<linearGradient id="SVGID_44_" gradientUnits="userSpaceOnUse" x1="-45.8604" y1="-8041.3965" x2="-23.9521" y2="-8041.3965" gradientTransform="matrix(8.979319e-011 -1 1 8.979319e-011 11042.5508 104.8491)">
			<stop  offset="0" style="stop-color:#FFDD0F"/>
			<stop  offset="1" style="stop-color:#F16623"/>
		</linearGradient>
		<polygon fill="url(#SVGID_44_)" points="3006.673,150.709 3010.602,128.801 2991.708,134.206 		"/>
		<polygon fill="#F49FC4" points="1783.377,159.928 1784.375,130.508 1760.703,141.206 		"/>
		
			<linearGradient id="SVGID_45_" gradientUnits="userSpaceOnUse" x1="-322.4561" y1="-8266.6328" x2="-305.9238" y2="-8266.6328" gradientTransform="matrix(8.979319e-011 -1 1 8.979319e-011 11042.5508 104.8491)">
			<stop  offset="0" style="stop-color:#F2767C"/>
			<stop  offset="1" style="stop-color:#EC2227"/>
		</linearGradient>
		<polygon fill="url(#SVGID_45_)" points="2769.628,427.305 2782.519,417.033 2769.317,410.773 		"/>
		
			<linearGradient id="SVGID_46_" gradientUnits="userSpaceOnUse" x1="-432.4287" y1="-8214.4375" x2="-410.4063" y2="-8214.4375" gradientTransform="matrix(8.979319e-011 -1 1 8.979319e-011 11042.5508 104.8491)">
			<stop  offset="0" style="stop-color:#FFDD0F"/>
			<stop  offset="1" style="stop-color:#F16623"/>
		</linearGradient>
		<polygon fill="url(#SVGID_46_)" points="2840.106,515.255 2816.122,520.062 2829.323,537.278 		"/>
		
			<linearGradient id="SVGID_47_" gradientUnits="userSpaceOnUse" x1="-318.2158" y1="-9194.8691" x2="-284.3574" y2="-9194.8691" gradientTransform="matrix(8.979319e-011 -1 1 8.979319e-011 11042.5508 104.8491)">
			<stop  offset="0" style="stop-color:#F2767C"/>
			<stop  offset="1" style="stop-color:#EC2227"/>
		</linearGradient>
		<polygon fill="url(#SVGID_47_)" points="1867.088,396.832 1828.277,389.207 1837.412,423.065 		"/>
		
			<linearGradient id="SVGID_48_" gradientUnits="userSpaceOnUse" x1="-164.2847" y1="-9191.8242" x2="-137.9917" y2="-9191.8242" gradientTransform="matrix(8.979319e-011 -1 1 8.979319e-011 11042.5508 104.8491)">
			<stop  offset="0" style="stop-color:#F7EC3C"/>
			<stop  offset="1" style="stop-color:#FFDD0F"/>
		</linearGradient>
		<polygon fill="url(#SVGID_48_)" points="1865.297,250.753 1836.158,242.841 1841.279,269.134 		"/>
		
			<linearGradient id="SVGID_49_" gradientUnits="userSpaceOnUse" x1="-389.292" y1="-8999.3359" x2="-355.6035" y2="-8999.3359" gradientTransform="matrix(8.979319e-011 -1 1 8.979319e-011 11042.5508 104.8491)">
			<stop  offset="0" style="stop-color:#F7EC3C"/>
			<stop  offset="1" style="stop-color:#FFDD0F"/>
		</linearGradient>
		<polygon fill="url(#SVGID_49_)" points="2059.436,460.453 2026.994,473.341 2049.902,494.141 		"/>
		
			<linearGradient id="SVGID_50_" gradientUnits="userSpaceOnUse" x1="-164.1128" y1="-8825.9414" x2="-137.0249" y2="-8825.9414" gradientTransform="matrix(8.979319e-011 -1 1 8.979319e-011 11042.5508 104.8491)">
			<stop  offset="0" style="stop-color:#FFDD0F"/>
			<stop  offset="1" style="stop-color:#F16623"/>
		</linearGradient>
		<polygon fill="url(#SVGID_50_)" points="2208.844,268.962 2228.078,249.556 2205.143,241.874 		"/>
		<polygon fill="#F49FC4" points="3066.737,327.12 3054.93,357.964 3083.98,355.289 		"/>
		
			<linearGradient id="SVGID_51_" gradientUnits="userSpaceOnUse" x1="8.6572" y1="-8976.0879" x2="49.5146" y2="-8976.0879" gradientTransform="matrix(8.979319e-011 -1 1 8.979319e-011 11042.5508 104.8491)">
			<stop  offset="0" style="stop-color:#27A8E0"/>
			<stop  offset="1" style="stop-color:#87D2DA"/>
		</linearGradient>
		<polygon fill="url(#SVGID_51_)" points="2069.762,55.334 2047.143,92.95 2085.783,96.192 		"/>
		
			<linearGradient id="SVGID_52_" gradientUnits="userSpaceOnUse" x1="-314.291" y1="-8464.1289" x2="-295.9102" y2="-8464.1289" gradientTransform="matrix(8.979319e-011 -1 1 8.979319e-011 11042.5508 104.8491)">
			<stop  offset="0" style="stop-color:#F7EC3C"/>
			<stop  offset="1" style="stop-color:#FFDD0F"/>
		</linearGradient>
		<polygon fill="url(#SVGID_52_)" points="2568.32,413.334 2588.525,419.14 2585.221,400.759 		"/>
		
			<linearGradient id="SVGID_53_" gradientUnits="userSpaceOnUse" x1="-295.9102" y1="-8848.8027" x2="-246.5151" y2="-8848.8027" gradientTransform="matrix(8.979319e-011 -1 1 8.979319e-011 11042.5508 104.8491)">
			<stop  offset="0" style="stop-color:#CBE9EB"/>
			<stop  offset="1" style="stop-color:#7DCED2"/>
		</linearGradient>
		<polygon fill="url(#SVGID_53_)" points="2213.111,351.364 2174.129,381.639 2213.367,400.759 		"/>
		
			<linearGradient id="SVGID_54_" gradientUnits="userSpaceOnUse" x1="-94.8589" y1="-8214.4922" x2="-68.5088" y2="-8214.4922" gradientTransform="matrix(8.979319e-011 -1 1 8.979319e-011 11042.5508 104.8491)">
			<stop  offset="0" style="stop-color:#FFDD0F"/>
			<stop  offset="1" style="stop-color:#F16623"/>
		</linearGradient>
		<polygon fill="url(#SVGID_54_)" points="2838.914,199.708 2837.462,173.358 2817.202,184.854 		"/>
		
			<linearGradient id="SVGID_55_" gradientUnits="userSpaceOnUse" x1="49.7432" y1="-7923.2153" x2="83.5459" y2="-7923.2153" gradientTransform="matrix(8.979319e-011 -1 1 8.979319e-011 11042.5508 104.8491)">
			<stop  offset="0" style="stop-color:#27A8E0"/>
			<stop  offset="1" style="stop-color:#87D2DA"/>
		</linearGradient>
		<polygon fill="url(#SVGID_55_)" points="3101.88,55.106 3136.792,45.204 3115.251,21.303 		"/>
		<polygon fill="#F49FC4" points="1958.451,432.484 1937.426,421.698 1937.111,442.641 		"/>
		
			<linearGradient id="SVGID_56_" gradientUnits="userSpaceOnUse" x1="-250.1563" y1="-9272.6602" x2="-227.564" y2="-9272.6602" gradientTransform="matrix(8.979319e-011 -1 1 8.979319e-011 11042.5508 104.8491)">
			<stop  offset="0" style="stop-color:#F7EC3C"/>
			<stop  offset="1" style="stop-color:#FFDD0F"/>
		</linearGradient>
		<polygon fill="url(#SVGID_56_)" points="1757.799,341.005 1779.34,355.005 1781.984,332.413 		"/>
		
			<linearGradient id="SVGID_57_" gradientUnits="userSpaceOnUse" x1="-162.1792" y1="-9338.8984" x2="-138.2183" y2="-9338.8984" gradientTransform="matrix(8.979319e-011 -1 1 8.979319e-011 11042.5508 104.8491)">
			<stop  offset="0" style="stop-color:#FFDD0F"/>
			<stop  offset="1" style="stop-color:#F16623"/>
		</linearGradient>
		<polygon fill="url(#SVGID_57_)" points="1718.191,265.036 1698.93,243.067 1689.115,267.028 		"/>
		
			<linearGradient id="SVGID_58_" gradientUnits="userSpaceOnUse" x1="-121.9448" y1="-8600.5781" x2="-89.5073" y2="-8600.5781" gradientTransform="matrix(8.979319e-011 -1 1 8.979319e-011 11042.5508 104.8491)">
			<stop  offset="0" style="stop-color:#F7EC3C"/>
			<stop  offset="1" style="stop-color:#FFDD0F"/>
		</linearGradient>
		<polygon fill="url(#SVGID_58_)" points="2427.391,194.356 2433.141,226.794 2456.557,209.495 		"/>
		<polygon fill="#F49FC4" points="2142.205,527.404 2143.91,510.815 2130.111,515.993 		"/>
		<polygon fill="#F49FC4" points="2485.037,293.546 2443.041,334.858 2492.181,352.101 		"/>
		
			<linearGradient id="SVGID_59_" gradientUnits="userSpaceOnUse" x1="-455.6172" y1="-8048.1694" x2="-440.0254" y2="-8048.1694" gradientTransform="matrix(8.979319e-011 -1 1 8.979319e-011 11042.5508 104.8491)">
			<stop  offset="0" style="stop-color:#F7EC3C"/>
			<stop  offset="1" style="stop-color:#FFDD0F"/>
		</linearGradient>
		<polygon fill="url(#SVGID_59_)" points="2986.331,551.904 3001.694,560.466 3002.433,544.875 		"/>
		
			<linearGradient id="SVGID_60_" gradientUnits="userSpaceOnUse" x1="49.1162" y1="-9330.6621" x2="92.0811" y2="-9330.6621" gradientTransform="matrix(8.979319e-011 -1 1 8.979319e-011 11042.5508 104.8491)">
			<stop  offset="0" style="stop-color:#CBE9EB"/>
			<stop  offset="1" style="stop-color:#7DCED2"/>
		</linearGradient>
		<polygon fill="url(#SVGID_60_)" points="1701.119,12.768 1693.354,55.733 1730.426,45.09 		"/>
		
			<linearGradient id="SVGID_61_" gradientUnits="userSpaceOnUse" x1="-38.7471" y1="-8368.7402" x2="-10.9756" y2="-8368.7402" gradientTransform="matrix(8.979319e-011 -1 1 8.979319e-011 11042.5508 104.8491)">
			<stop  offset="0" style="stop-color:#FFDD0F"/>
			<stop  offset="1" style="stop-color:#F16623"/>
		</linearGradient>
		<polygon fill="url(#SVGID_61_)" points="2657.552,138.76 2690.071,143.596 2681.139,115.825 		"/>
		<polygon fill="#F49FC4" points="3060.222,439.94 3080.027,470.725 3096.642,442.869 		"/>
		
			<linearGradient id="SVGID_62_" gradientUnits="userSpaceOnUse" x1="-404.4297" y1="-8558.748" x2="-373.8135" y2="-8558.748" gradientTransform="matrix(8.979319e-011 -1 1 8.979319e-011 11042.5508 104.8491)">
			<stop  offset="0" style="stop-color:#F7EC3C"/>
			<stop  offset="1" style="stop-color:#FFDD0F"/>
		</linearGradient>
		<polygon fill="url(#SVGID_62_)" points="2475.193,509.279 2496.763,487.199 2470.842,478.663 		"/>
		<polygon fill="#F49FC4" points="2238.461,110.25 2243.783,139.84 2265.096,124.02 		"/>
		<polygon fill="#F49FC4" points="2136.912,159.075 2134.719,184.456 2155.662,176.258 		"/>
		
			<linearGradient id="SVGID_63_" gradientUnits="userSpaceOnUse" x1="-336.8818" y1="-8101.5913" x2="-292.5518" y2="-8101.5913" gradientTransform="matrix(8.979319e-011 -1 1 8.979319e-011 11042.5508 104.8491)">
			<stop  offset="0" style="stop-color:#FFDD0F"/>
			<stop  offset="1" style="stop-color:#F16623"/>
		</linearGradient>
		<polygon fill="url(#SVGID_63_)" points="2966.382,397.401 2915.538,403.717 2940.461,441.731 		"/>
		<polygon fill="#F49FC4" points="2481.709,47.538 2494.855,38.491 2482.536,31.602 		"/>
		
			<linearGradient id="SVGID_64_" gradientUnits="userSpaceOnUse" x1="-144.4233" y1="-8458.2969" x2="-117.0503" y2="-8458.2969" gradientTransform="matrix(8.979319e-011 -1 1 8.979319e-011 11042.5508 104.8491)">
			<stop  offset="0" style="stop-color:#FFDD0F"/>
			<stop  offset="1" style="stop-color:#F16623"/>
		</linearGradient>
		<polygon fill="url(#SVGID_64_)" points="2568.32,244.206 2600.189,249.272 2591.709,221.899 		"/>
		<polygon fill="#F49FC4" points="2539.697,139.27 2551.306,122.938 2533.838,120.092 		"/>
		
			<linearGradient id="SVGID_65_" gradientUnits="userSpaceOnUse" x1="-61.2822" y1="-7922.561" x2="-27.2529" y2="-7922.561" gradientTransform="matrix(8.979319e-011 -1 1 8.979319e-011 11042.5508 104.8491)">
			<stop  offset="0" style="stop-color:#FFDD0F"/>
			<stop  offset="1" style="stop-color:#F16623"/>
		</linearGradient>
		<polygon fill="url(#SVGID_65_)" points="3099.604,161.977 3140.376,166.131 3127.687,132.102 		"/>
		
			<linearGradient id="SVGID_66_" gradientUnits="userSpaceOnUse" x1="-130.1401" y1="-8719.5234" x2="-82.0522" y2="-8719.5234" gradientTransform="matrix(8.979319e-011 -1 1 8.979319e-011 11042.5508 104.8491)">
			<stop  offset="0" style="stop-color:#F7EC3C"/>
			<stop  offset="1" style="stop-color:#FFDD0F"/>
		</linearGradient>
		<polygon fill="url(#SVGID_66_)" points="2339.611,186.901 2303.395,218.601 2342.66,234.989 		"/>
		
			<linearGradient id="SVGID_67_" gradientUnits="userSpaceOnUse" x1="-265.4648" y1="-8983.459" x2="-246.002" y2="-8983.459" gradientTransform="matrix(8.979319e-011 -1 1 8.979319e-011 11042.5508 104.8491)">
			<stop  offset="0" style="stop-color:#F7EC3C"/>
			<stop  offset="1" style="stop-color:#FFDD0F"/>
		</linearGradient>
		<polygon fill="url(#SVGID_67_)" points="2048.766,362.573 2069.42,370.314 2067.43,350.851 		"/>
		
			<linearGradient id="SVGID_68_" gradientUnits="userSpaceOnUse" x1="-442.1484" y1="-9109.4199" x2="-424.9912" y2="-9109.4199" gradientTransform="matrix(8.979319e-011 -1 1 8.979319e-011 11042.5508 104.8491)">
			<stop  offset="0" style="stop-color:#CBE9EB"/>
			<stop  offset="1" style="stop-color:#7DCED2"/>
		</linearGradient>
		<polygon fill="url(#SVGID_68_)" points="1922.533,546.998 1943.729,546.485 1935.023,529.84 		"/>
		
			<linearGradient id="SVGID_69_" gradientUnits="userSpaceOnUse" x1="-181.6987" y1="-8109.7856" x2="-151.8198" y2="-8109.7856" gradientTransform="matrix(8.979319e-011 -1 1 8.979319e-011 11042.5508 104.8491)">
			<stop  offset="0" style="stop-color:#FFDD0F"/>
			<stop  offset="1" style="stop-color:#F16623"/>
		</linearGradient>
		<polygon fill="url(#SVGID_69_)" points="2936.648,286.548 2946.522,256.669 2919.009,260.54 		"/>
		
			<linearGradient id="SVGID_70_" gradientUnits="userSpaceOnUse" x1="-247.1982" y1="-8365.2676" x2="-231.2632" y2="-8365.2676" gradientTransform="matrix(8.979319e-011 -1 1 8.979319e-011 11042.5508 104.8491)">
			<stop  offset="0" style="stop-color:#F7EC3C"/>
			<stop  offset="1" style="stop-color:#FFDD0F"/>
		</linearGradient>
		<polygon fill="url(#SVGID_70_)" points="2685.491,343.339 2669.075,336.112 2669.759,352.047 		"/>
		
			<linearGradient id="SVGID_71_" gradientUnits="userSpaceOnUse" x1="-152.6753" y1="-8986.9746" x2="-137.9351" y2="-8986.9746" gradientTransform="matrix(8.979319e-011 -1 1 8.979319e-011 11042.5508 104.8491)">
			<stop  offset="0" style="stop-color:#F7EC3C"/>
			<stop  offset="1" style="stop-color:#FFDD0F"/>
		</linearGradient>
		<polygon fill="url(#SVGID_71_)" points="2047.539,252.573 2063.615,257.524 2061.256,242.784 		"/>
		
			<linearGradient id="SVGID_72_" gradientUnits="userSpaceOnUse" x1="-156.2573" y1="-7981.147" x2="-128.8882" y2="-7981.147" gradientTransform="matrix(8.979319e-011 -1 1 8.979319e-011 11042.5508 104.8491)">
			<stop  offset="0" style="stop-color:#CBE9EB"/>
			<stop  offset="1" style="stop-color:#7DCED2"/>
		</linearGradient>
		<polygon fill="url(#SVGID_72_)" points="3046.765,244.151 3072.829,261.106 3076.044,233.737 		"/>
		
			<linearGradient id="SVGID_73_" gradientUnits="userSpaceOnUse" x1="-62.1338" y1="-9151.6914" x2="-29.7568" y2="-9151.6914" gradientTransform="matrix(8.979319e-011 -1 1 8.979319e-011 11042.5508 104.8491)">
			<stop  offset="0" style="stop-color:#CBE9EB"/>
			<stop  offset="1" style="stop-color:#7DCED2"/>
		</linearGradient>
		<polygon fill="url(#SVGID_73_)" points="1906.496,166.983 1897.248,134.606 1875.225,154.637 		"/>
		
			<linearGradient id="SVGID_74_" gradientUnits="userSpaceOnUse" x1="-236.6108" y1="-8213.8262" x2="-214.3628" y2="-8213.8262" gradientTransform="matrix(8.979319e-011 -1 1 8.979319e-011 11042.5508 104.8491)">
			<stop  offset="0" style="stop-color:#F7EC3C"/>
			<stop  offset="1" style="stop-color:#FFDD0F"/>
		</linearGradient>
		<polygon fill="url(#SVGID_74_)" points="2816.235,341.46 2841.216,337.649 2828.411,319.212 		"/>
		
			<linearGradient id="SVGID_75_" gradientUnits="userSpaceOnUse" x1="-65.21" y1="-9047.2656" x2="-49.5576" y2="-9047.2656" gradientTransform="matrix(8.979319e-011 -1 1 8.979319e-011 11042.5508 104.8491)">
			<stop  offset="0" style="stop-color:#F2767C"/>
			<stop  offset="1" style="stop-color:#EC2227"/>
		</linearGradient>
		<polygon fill="url(#SVGID_75_)" points="2002.297,154.407 1988.273,161.75 1999.596,170.059 		"/>
		
			<linearGradient id="SVGID_76_" gradientUnits="userSpaceOnUse" x1="-365.0791" y1="-8679.0645" x2="-338.0752" y2="-8679.0645" gradientTransform="matrix(8.979319e-011 -1 1 8.979319e-011 11042.5508 104.8491)">
			<stop  offset="0" style="stop-color:#FFDD0F"/>
			<stop  offset="1" style="stop-color:#F16623"/>
		</linearGradient>
		<polygon fill="url(#SVGID_76_)" points="2360.186,469.928 2375.977,446.17 2350.996,442.924 		"/>
		
			<linearGradient id="SVGID_77_" gradientUnits="userSpaceOnUse" x1="-446.9375" y1="-9373.127" x2="-412.1416" y2="-9373.127" gradientTransform="matrix(8.979319e-011 -1 1 8.979319e-011 11042.5508 104.8491)">
			<stop  offset="0" style="stop-color:#F2767C"/>
			<stop  offset="1" style="stop-color:#EC2227"/>
		</linearGradient>
		<polygon fill="url(#SVGID_77_)" points="1687.662,537.133 1653.887,516.991 1651.186,551.787 		"/>
		
			<linearGradient id="SVGID_78_" gradientUnits="userSpaceOnUse" x1="-424.5742" y1="-8333.2012" x2="-384.5703" y2="-8333.2012" gradientTransform="matrix(8.979319e-011 -1 1 8.979319e-011 11042.5508 104.8491)">
			<stop  offset="0" style="stop-color:#CBE9EB"/>
			<stop  offset="1" style="stop-color:#7DCED2"/>
		</linearGradient>
		<polygon fill="url(#SVGID_78_)" points="2727.858,529.423 2719.036,489.419 2690.841,512.125 		"/>
		
			<linearGradient id="SVGID_79_" gradientUnits="userSpaceOnUse" x1="-314.6885" y1="-9378.9746" x2="-285.7217" y2="-9378.9746" gradientTransform="matrix(8.979319e-011 -1 1 8.979319e-011 11042.5508 104.8491)">
			<stop  offset="0" style="stop-color:#CBE9EB"/>
			<stop  offset="1" style="stop-color:#7DCED2"/>
		</linearGradient>
		<polygon fill="url(#SVGID_79_)" points="1675.455,419.538 1674.035,390.571 1651.697,403.035 		"/>
		
			<linearGradient id="SVGID_80_" gradientUnits="userSpaceOnUse" x1="-412.1973" y1="-9238.6855" x2="-393.5605" y2="-9238.6855" gradientTransform="matrix(8.979319e-011 -1 1 8.979319e-011 11042.5508 104.8491)">
			<stop  offset="0" style="stop-color:#CBE9EB"/>
			<stop  offset="1" style="stop-color:#7DCED2"/>
		</linearGradient>
		<polygon fill="url(#SVGID_80_)" points="1812.801,517.046 1807.648,498.41 1794.932,509.819 		"/>
		
			<linearGradient id="SVGID_81_" gradientUnits="userSpaceOnUse" x1="-399.4219" y1="-8805.5391" x2="-379.96" y2="-8805.5391" gradientTransform="matrix(8.979319e-011 -1 1 8.979319e-011 11042.5508 104.8491)">
			<stop  offset="0" style="stop-color:#F7EC3C"/>
			<stop  offset="1" style="stop-color:#FFDD0F"/>
		</linearGradient>
		<polygon fill="url(#SVGID_81_)" points="2238.576,484.809 2227.822,502.733 2246.203,504.271 		"/>
		<polygon fill="#F49FC4" points="1646.973,181.04 1608.305,155.375 1603.129,196.177 		"/>
		<polygon fill="#F49FC4" points="2724.388,235.558 2727.063,255.134 2741.518,245.345 		"/>
		<polygon fill="#F49FC4" points="2351.594,94.258 2392.904,109.737 2388.952,70.754 		"/>
		
			<linearGradient id="SVGID_82_" gradientUnits="userSpaceOnUse" x1="-248.2207" y1="-8721.5898" x2="-225.5151" y2="-8721.5898" gradientTransform="matrix(8.979319e-011 -1 1 8.979319e-011 11042.5508 104.8491)">
			<stop  offset="0" style="stop-color:#FFDD0F"/>
			<stop  offset="1" style="stop-color:#F16623"/>
		</linearGradient>
		<polygon fill="url(#SVGID_82_)" points="2332.328,330.364 2309.594,337.876 2324.477,353.07 		"/>
		
			<linearGradient id="SVGID_83_" gradientUnits="userSpaceOnUse" x1="32.0439" y1="-8238.6074" x2="45.7588" y2="-8238.6074" gradientTransform="matrix(8.979319e-011 -1 1 8.979319e-011 11042.5508 104.8491)">
			<stop  offset="0" style="stop-color:#CBE9EB"/>
			<stop  offset="1" style="stop-color:#7DCED2"/>
		</linearGradient>
		<polygon fill="url(#SVGID_83_)" points="2808.124,72.805 2809.689,59.09 2798.196,63.188 		"/>
		
			<linearGradient id="SVGID_84_" gradientUnits="userSpaceOnUse" x1="-439.2852" y1="-8439.5176" x2="-416.8623" y2="-8439.5176" gradientTransform="matrix(8.979319e-011 -1 1 8.979319e-011 11042.5508 104.8491)">
			<stop  offset="0" style="stop-color:#F2767C"/>
			<stop  offset="1" style="stop-color:#EC2227"/>
		</linearGradient>
		<polygon fill="url(#SVGID_84_)" points="2612.508,544.134 2610.517,521.711 2593.561,532.071 		"/>
	</g>
</g>
</svg>
